<mxfile host="app.diagrams.net" modified="2023-02-01T02:01:20.803Z" agent="5.0 (Windows NT 10.0; Win64; x64) AppleWebKit/537.36 (KHTML, like Gecko) Chrome/109.0.0.0 Safari/537.36" etag="a3a8gADelYQcOpmCERGX" version="20.8.13" type="github">
  <diagram name="第 1 页" id="2zzjvKbSOy1SyM4pG3Pb">
    <mxGraphModel dx="1434" dy="764" grid="1" gridSize="10" guides="1" tooltips="1" connect="1" arrows="1" fold="1" page="1" pageScale="1" pageWidth="827" pageHeight="1169" math="0" shadow="0">
      <root>
        <mxCell id="0" />
        <mxCell id="1" parent="0" />
        <mxCell id="Lvl2Drqpu6WyYU6d_-Ae-1" value="GameServ" style="rounded=0;whiteSpace=wrap;html=1;fillColor=#dae8fc;strokeColor=#6c8ebf;" vertex="1" parent="1">
          <mxGeometry x="707" y="630" width="120" height="60" as="geometry" />
        </mxCell>
        <mxCell id="Lvl2Drqpu6WyYU6d_-Ae-2" value="DBServ" style="rounded=0;whiteSpace=wrap;html=1;fillColor=#fff2cc;strokeColor=#d6b656;" vertex="1" parent="1">
          <mxGeometry x="354" y="120" width="120" height="60" as="geometry" />
        </mxCell>
        <mxCell id="Lvl2Drqpu6WyYU6d_-Ae-3" value="HTTPServ" style="rounded=0;whiteSpace=wrap;html=1;fillColor=#e1d5e7;strokeColor=#9673a6;" vertex="1" parent="1">
          <mxGeometry x="1020" y="120" width="120" height="60" as="geometry" />
        </mxCell>
        <mxCell id="Lvl2Drqpu6WyYU6d_-Ae-4" value="GMServ" style="rounded=1;whiteSpace=wrap;html=1;" vertex="1" parent="1">
          <mxGeometry x="200" y="630" width="120" height="60" as="geometry" />
        </mxCell>
        <mxCell id="Lvl2Drqpu6WyYU6d_-Ae-5" value="" style="endArrow=none;html=1;rounded=0;entryX=0.5;entryY=1;entryDx=0;entryDy=0;exitX=0.25;exitY=0;exitDx=0;exitDy=0;startArrow=none;" edge="1" parent="1" source="Lvl2Drqpu6WyYU6d_-Ae-9" target="Lvl2Drqpu6WyYU6d_-Ae-2">
          <mxGeometry width="50" height="50" relative="1" as="geometry">
            <mxPoint x="390" y="420" as="sourcePoint" />
            <mxPoint x="440" y="370" as="targetPoint" />
          </mxGeometry>
        </mxCell>
        <mxCell id="Lvl2Drqpu6WyYU6d_-Ae-6" value="" style="endArrow=none;html=1;rounded=0;entryX=0;entryY=0.5;entryDx=0;entryDy=0;exitX=1;exitY=0.5;exitDx=0;exitDy=0;startArrow=none;" edge="1" parent="1" source="Lvl2Drqpu6WyYU6d_-Ae-13" target="Lvl2Drqpu6WyYU6d_-Ae-3">
          <mxGeometry width="50" height="50" relative="1" as="geometry">
            <mxPoint x="390" y="420" as="sourcePoint" />
            <mxPoint x="440" y="370" as="targetPoint" />
          </mxGeometry>
        </mxCell>
        <mxCell id="Lvl2Drqpu6WyYU6d_-Ae-7" value="" style="endArrow=none;html=1;rounded=0;entryX=0.5;entryY=1;entryDx=0;entryDy=0;exitX=0.75;exitY=0;exitDx=0;exitDy=0;startArrow=none;" edge="1" parent="1" source="Lvl2Drqpu6WyYU6d_-Ae-11" target="Lvl2Drqpu6WyYU6d_-Ae-3">
          <mxGeometry width="50" height="50" relative="1" as="geometry">
            <mxPoint x="390" y="420" as="sourcePoint" />
            <mxPoint x="440" y="370" as="targetPoint" />
          </mxGeometry>
        </mxCell>
        <mxCell id="Lvl2Drqpu6WyYU6d_-Ae-10" value="" style="endArrow=none;html=1;rounded=0;entryX=1;entryY=1;entryDx=0;entryDy=0;exitX=0.25;exitY=0;exitDx=0;exitDy=0;" edge="1" parent="1" source="Lvl2Drqpu6WyYU6d_-Ae-1" target="Lvl2Drqpu6WyYU6d_-Ae-9">
          <mxGeometry width="50" height="50" relative="1" as="geometry">
            <mxPoint x="384" y="880" as="sourcePoint" />
            <mxPoint x="170" y="140" as="targetPoint" />
          </mxGeometry>
        </mxCell>
        <mxCell id="Lvl2Drqpu6WyYU6d_-Ae-9" value="socket" style="whiteSpace=wrap;html=1;aspect=fixed;strokeColor=none;" vertex="1" parent="1">
          <mxGeometry x="510" y="330" width="40" height="40" as="geometry" />
        </mxCell>
        <mxCell id="Lvl2Drqpu6WyYU6d_-Ae-12" value="socket" style="whiteSpace=wrap;html=1;aspect=fixed;strokeColor=none;" vertex="1" parent="1">
          <mxGeometry x="470" y="630" width="40" height="40" as="geometry" />
        </mxCell>
        <mxCell id="Lvl2Drqpu6WyYU6d_-Ae-14" value="" style="endArrow=none;html=1;rounded=0;exitX=0.75;exitY=0;exitDx=0;exitDy=0;entryX=0.25;entryY=1;entryDx=0;entryDy=0;" edge="1" parent="1" source="Lvl2Drqpu6WyYU6d_-Ae-1" target="Lvl2Drqpu6WyYU6d_-Ae-11">
          <mxGeometry width="50" height="50" relative="1" as="geometry">
            <mxPoint x="444" y="880" as="sourcePoint" />
            <mxPoint x="960" y="380" as="targetPoint" />
          </mxGeometry>
        </mxCell>
        <mxCell id="Lvl2Drqpu6WyYU6d_-Ae-11" value="socket" style="whiteSpace=wrap;html=1;aspect=fixed;strokeColor=none;" vertex="1" parent="1">
          <mxGeometry x="960" y="330" width="40" height="40" as="geometry" />
        </mxCell>
        <mxCell id="Lvl2Drqpu6WyYU6d_-Ae-16" value="" style="endArrow=none;html=1;rounded=0;entryX=0;entryY=0.5;entryDx=0;entryDy=0;exitX=1;exitY=0.5;exitDx=0;exitDy=0;" edge="1" parent="1" source="Lvl2Drqpu6WyYU6d_-Ae-2" target="Lvl2Drqpu6WyYU6d_-Ae-13">
          <mxGeometry width="50" height="50" relative="1" as="geometry">
            <mxPoint x="280" y="160" as="sourcePoint" />
            <mxPoint x="570" y="160" as="targetPoint" />
          </mxGeometry>
        </mxCell>
        <mxCell id="Lvl2Drqpu6WyYU6d_-Ae-13" value="socket" style="whiteSpace=wrap;html=1;aspect=fixed;strokeColor=none;" vertex="1" parent="1">
          <mxGeometry x="730" y="130" width="40" height="40" as="geometry" />
        </mxCell>
        <mxCell id="Lvl2Drqpu6WyYU6d_-Ae-17" value="" style="endArrow=classic;html=1;rounded=0;exitX=1;exitY=0.5;exitDx=0;exitDy=0;entryX=0;entryY=0.5;entryDx=0;entryDy=0;" edge="1" parent="1" source="Lvl2Drqpu6WyYU6d_-Ae-4" target="Lvl2Drqpu6WyYU6d_-Ae-1">
          <mxGeometry width="50" height="50" relative="1" as="geometry">
            <mxPoint x="390" y="720" as="sourcePoint" />
            <mxPoint x="440" y="670" as="targetPoint" />
          </mxGeometry>
        </mxCell>
        <mxCell id="Lvl2Drqpu6WyYU6d_-Ae-18" value="" style="shape=flexArrow;endArrow=classic;html=1;rounded=0;exitX=0;exitY=0.5;exitDx=0;exitDy=0;" edge="1" parent="1" source="Lvl2Drqpu6WyYU6d_-Ae-2">
          <mxGeometry width="50" height="50" relative="1" as="geometry">
            <mxPoint x="390" y="320" as="sourcePoint" />
            <mxPoint x="240" y="150" as="targetPoint" />
          </mxGeometry>
        </mxCell>
        <mxCell id="Lvl2Drqpu6WyYU6d_-Ae-20" value="List" style="swimlane;fontStyle=0;childLayout=stackLayout;horizontal=1;startSize=30;horizontalStack=0;resizeParent=1;resizeParentMax=0;resizeLast=0;collapsible=1;marginBottom=0;whiteSpace=wrap;html=1;" vertex="1" parent="1">
          <mxGeometry x="1280" y="40" width="209" height="170" as="geometry">
            <mxRectangle x="1241" y="40" width="60" height="30" as="alternateBounds" />
          </mxGeometry>
        </mxCell>
        <mxCell id="Lvl2Drqpu6WyYU6d_-Ae-21" value="*主要外接第三方库，例如第三方平台，" style="text;strokeColor=none;fillColor=none;align=left;verticalAlign=middle;spacingLeft=4;spacingRight=4;overflow=hidden;points=[[0,0.5],[1,0.5]];portConstraint=eastwest;rotatable=0;whiteSpace=wrap;html=1;" vertex="1" parent="Lvl2Drqpu6WyYU6d_-Ae-20">
          <mxGeometry y="30" width="209" height="50" as="geometry" />
        </mxCell>
        <mxCell id="Lvl2Drqpu6WyYU6d_-Ae-22" value="Item 2" style="text;strokeColor=none;fillColor=none;align=left;verticalAlign=middle;spacingLeft=4;spacingRight=4;overflow=hidden;points=[[0,0.5],[1,0.5]];portConstraint=eastwest;rotatable=0;whiteSpace=wrap;html=1;" vertex="1" parent="Lvl2Drqpu6WyYU6d_-Ae-20">
          <mxGeometry y="80" width="209" height="30" as="geometry" />
        </mxCell>
        <mxCell id="Lvl2Drqpu6WyYU6d_-Ae-23" value="Item 3" style="text;strokeColor=none;fillColor=none;align=left;verticalAlign=middle;spacingLeft=4;spacingRight=4;overflow=hidden;points=[[0,0.5],[1,0.5]];portConstraint=eastwest;rotatable=0;whiteSpace=wrap;html=1;" vertex="1" parent="Lvl2Drqpu6WyYU6d_-Ae-20">
          <mxGeometry y="110" width="209" height="30" as="geometry" />
        </mxCell>
        <mxCell id="Lvl2Drqpu6WyYU6d_-Ae-26" value="List Item" style="text;strokeColor=none;fillColor=none;align=left;verticalAlign=middle;spacingLeft=4;spacingRight=4;overflow=hidden;points=[[0,0.5],[1,0.5]];portConstraint=eastwest;rotatable=0;whiteSpace=wrap;html=1;fontSize=12;fontFamily=Helvetica;fontColor=default;" vertex="1" parent="Lvl2Drqpu6WyYU6d_-Ae-20">
          <mxGeometry y="140" width="209" height="30" as="geometry" />
        </mxCell>
        <mxCell id="Lvl2Drqpu6WyYU6d_-Ae-28" value="List" style="swimlane;fontStyle=0;childLayout=stackLayout;horizontal=1;startSize=30;horizontalStack=0;resizeParent=1;resizeParentMax=0;resizeLast=0;collapsible=1;marginBottom=0;whiteSpace=wrap;html=1;strokeColor=default;fontFamily=Helvetica;fontSize=12;fontColor=default;fillColor=default;" vertex="1" parent="1">
          <mxGeometry x="30" y="40" width="210" height="250" as="geometry" />
        </mxCell>
        <mxCell id="Lvl2Drqpu6WyYU6d_-Ae-29" value="*多线程" style="text;strokeColor=none;fillColor=none;align=left;verticalAlign=middle;spacingLeft=4;spacingRight=4;overflow=hidden;points=[[0,0.5],[1,0.5]];portConstraint=eastwest;rotatable=0;whiteSpace=wrap;html=1;fontSize=12;fontFamily=Helvetica;fontColor=default;" vertex="1" parent="Lvl2Drqpu6WyYU6d_-Ae-28">
          <mxGeometry y="30" width="210" height="30" as="geometry" />
        </mxCell>
        <mxCell id="Lvl2Drqpu6WyYU6d_-Ae-30" value="*线程池" style="text;strokeColor=none;fillColor=none;align=left;verticalAlign=middle;spacingLeft=4;spacingRight=4;overflow=hidden;points=[[0,0.5],[1,0.5]];portConstraint=eastwest;rotatable=0;whiteSpace=wrap;html=1;fontSize=12;fontFamily=Helvetica;fontColor=default;" vertex="1" parent="Lvl2Drqpu6WyYU6d_-Ae-28">
          <mxGeometry y="60" width="210" height="30" as="geometry" />
        </mxCell>
        <mxCell id="Lvl2Drqpu6WyYU6d_-Ae-31" value="*mysql多连接" style="text;strokeColor=none;fillColor=none;align=left;verticalAlign=middle;spacingLeft=4;spacingRight=4;overflow=hidden;points=[[0,0.5],[1,0.5]];portConstraint=eastwest;rotatable=0;whiteSpace=wrap;html=1;fontSize=12;fontFamily=Helvetica;fontColor=default;" vertex="1" parent="Lvl2Drqpu6WyYU6d_-Ae-28">
          <mxGeometry y="90" width="210" height="30" as="geometry" />
        </mxCell>
        <mxCell id="Lvl2Drqpu6WyYU6d_-Ae-32" value="*将接收到的数据放入队列，从队列中定时读取" style="text;strokeColor=none;fillColor=none;align=left;verticalAlign=middle;spacingLeft=4;spacingRight=4;overflow=hidden;points=[[0,0.5],[1,0.5]];portConstraint=eastwest;rotatable=0;whiteSpace=wrap;html=1;fontSize=12;fontFamily=Helvetica;fontColor=default;" vertex="1" parent="Lvl2Drqpu6WyYU6d_-Ae-28">
          <mxGeometry y="120" width="210" height="30" as="geometry" />
        </mxCell>
        <mxCell id="Lvl2Drqpu6WyYU6d_-Ae-34" value="*根据消息类型，对消息进行处理后，进行数据库增删改查操作" style="text;strokeColor=none;fillColor=none;align=left;verticalAlign=middle;spacingLeft=4;spacingRight=4;overflow=hidden;points=[[0,0.5],[1,0.5]];portConstraint=eastwest;rotatable=0;whiteSpace=wrap;html=1;fontSize=12;fontFamily=Helvetica;fontColor=default;" vertex="1" parent="Lvl2Drqpu6WyYU6d_-Ae-28">
          <mxGeometry y="150" width="210" height="40" as="geometry" />
        </mxCell>
        <mxCell id="Lvl2Drqpu6WyYU6d_-Ae-33" value="*消息中有需要返还给Game进程的数据，通过PB数据，建立Player的socket，发送给Game进程" style="text;strokeColor=none;fillColor=none;align=left;verticalAlign=middle;spacingLeft=4;spacingRight=4;overflow=hidden;points=[[0,0.5],[1,0.5]];portConstraint=eastwest;rotatable=0;whiteSpace=wrap;html=1;fontSize=12;fontFamily=Helvetica;fontColor=default;" vertex="1" parent="Lvl2Drqpu6WyYU6d_-Ae-28">
          <mxGeometry y="190" width="210" height="60" as="geometry" />
        </mxCell>
      </root>
    </mxGraphModel>
  </diagram>
</mxfile>
